<svg width="24" height="24" viewBox="0 0 24 24" fill="none" xmlns="http://www.w3.org/2000/svg">
<path d="M6.06549 10.6846C6.37787 10.997 6.37787 11.503 6.06549 11.8154C5.75308 12.1278 5.24705 12.1278 4.93463 11.8154L4.29987 11.1807V20.9502H10.7501C13.5959 20.9502 16.131 19.6223 17.7715 17.5498C18.0458 17.2035 18.5492 17.1457 18.8956 17.4199C19.2417 17.6941 19.3004 18.1966 19.0264 18.543C17.0954 20.9823 14.1055 22.5498 10.7501 22.5498H2.70026V11.1807L2.06549 11.8154C1.75308 12.1278 1.24705 12.1278 0.934631 11.8154C0.622212 11.503 0.622212 10.997 0.934631 10.6846L3.50006 8.11816L6.06549 10.6846ZM10.7501 6.4502C13.8152 6.45023 16.2999 8.93484 16.2999 12C16.2999 15.0652 13.8152 17.5498 10.7501 17.5498H7.70026V10.25C7.70026 9.80817 8.05823 9.4502 8.50006 9.4502C8.94186 9.45023 9.29987 9.80819 9.29987 10.25V15.9502H10.7501C12.9316 15.9502 14.7003 14.1815 14.7003 12C14.7003 9.8185 12.9316 8.04984 10.7501 8.0498H6.50006C6.05823 8.0498 5.70026 7.69183 5.70026 7.25C5.70026 6.80817 6.05823 6.4502 6.50006 6.4502H10.7501ZM10.7501 1.4502C16.5766 1.45023 21.2999 6.17342 21.2999 12V13.3193L21.9346 12.6846C22.2471 12.3722 22.7531 12.3722 23.0655 12.6846C23.3779 12.997 23.3779 13.503 23.0655 13.8154L20.5001 16.3818L17.9346 13.8154C17.6222 13.503 17.6222 12.997 17.9346 12.6846C18.2471 12.3722 18.7531 12.3722 19.0655 12.6846L19.7003 13.3193V12C19.7003 7.05707 15.693 3.04984 10.7501 3.0498H9.29987V4.25C9.29987 4.69181 8.94186 5.04977 8.50006 5.0498C8.05823 5.0498 7.70026 4.69183 7.70026 4.25V1.4502H10.7501Z" fill="black"/>
</svg>
